<?xml version="1.0" standalone="no"?><!DOCTYPE svg PUBLIC "-//W3C//DTD SVG 20010904//EN"
 "http://www.w3.org/TR/2001/REC-SVG-20010904/DTD/svg10.dtd"><svg version="1.0" xmlns="http://www.w3.org/2000/svg" width="1920.000000pt" height="1080.000000pt" viewBox="0 0 1920.000000 1080.000000" preserveAspectRatio="xMidYMid meet"><g transform="translate(0.000000,1080.000000) scale(0.100000,-0.100000)" fill="#000000" stroke="none"><path d="M13178 10783 c7 -3 16 -2 19 1 4 3 -2 6 -13 5 -11 0 -14 -3 -6 -6z"/><path d="M13378 10783 c12 -2 32 -2 45 0 12 2 2 4 -23 4 -25 0 -35 -2 -22 -4z"/><path d="M13698 10783 c12 -2 32 -2 45 0 12 2 2 4 -23 4 -25 0 -35 -2 -22 -4z"/><path d="M13858 10783 c12 -2 32 -2 45 0 12 2 2 4 -23 4 -25 0 -35 -2 -22 -4z"/><path d="M7605 9895 c-38 -8 -110 -19 -160 -25 -97 -12 -160 -35 -193 -70
l-20 -22 -72 18 -72 17 -256 -37 c-142 -20 -314 -45 -383 -56 -134 -19 -168
-32 -211 -77 -56 -59 -56 -60 -98 -913 -21 -437 -42 -858 -45 -935 -3 -77 -10
-230 -15 -340 -75 -1555 -194 -5126 -203 -6055 l-2 -285 28 -57 c47 -95 125
-148 240 -163 49 -7 56 -24 9 -26 -15 0 -36 -5 -47 -10 -14 -6 -4 -8 35 -6 30
2 118 -2 195 -9 77 -7 183 -16 235 -20 52 -3 98 -8 102 -11 4 -2 122 -4 262
-3 217 0 255 -2 250 -14 -6 -17 34 -22 221 -32 109 -5 526 -5 635 1 25 1 169
7 320 13 151 7 304 15 340 18 36 3 85 6 109 5 55 -2 131 19 131 36 0 7 -9 13
-19 13 -11 0 -27 7 -36 16 -12 12 -28 15 -66 12 -58 -6 -70 5 -37 34 l23 21
-30 -8 c-16 -5 -43 -8 -60 -7 l-30 1 29 -12 29 -13 -42 -1 c-25 -1 -39 2 -35
8 6 11 -116 2 -151 -11 -11 -4 -29 -4 -40 1 -11 4 -14 8 -6 8 13 1 495 64 776
101 83 11 267 36 410 55 374 49 911 121 1120 150 420 58 613 84 660 90 28 3
129 16 225 30 96 13 193 26 215 29 22 3 72 10 110 16 39 6 120 17 180 25 61 8
191 26 290 40 99 14 212 30 252 35 98 13 124 20 153 42 14 11 41 29 60 41 23
14 45 43 65 82 29 58 30 66 34 220 10 478 -49 3400 -99 4895 -11 316 -25 719
-31 895 -8 262 -14 332 -29 385 -20 68 -50 117 -91 148 -13 10 -319 123 -679
251 -360 127 -698 247 -750 266 -52 18 -156 55 -230 80 -74 26 -178 62 -230
80 -774 274 -3087 1042 -3157 1049 -27 2 -79 -2 -118 -9z m-399 -196 c-8 -24
-14 -37 -15 -28 -1 19 20 82 25 76 2 -2 -2 -23 -10 -48z m194 41 c0 -5 -2 -10
-4 -10 -3 0 -8 5 -11 10 -3 6 -1 10 4 10 6 0 11 -4 11 -10z m-155 -30 c3 -5 1
-10 -4 -10 -6 0 -11 5 -11 10 0 6 2 10 4 10 3 0 8 -4 11 -10z m105 -236 c0
-21 -4 -33 -10 -29 -5 3 -10 22 -10 41 0 21 4 33 10 29 6 -3 10 -22 10 -41z
m-63 -578 c-6 -8 -15 -12 -19 -9 -4 2 -2 10 5 17 6 8 15 12 19 9 4 -2 2 -10
-5 -17z m1150 -8012 c-3 -3 -12 -4 -19 -1 -8 3 -5 6 6 6 11 1 17 -2 13 -5z
m-111 -14 c-26 -5 -55 -11 -63 -14 -8 -3 -20 -3 -26 1 -13 9 46 20 103 20 28
1 26 -1 -14 -7z m-146 -20 c-14 -4 -45 -8 -70 -8 l-45 1 40 7 c22 4 54 7 70 8
29 0 29 0 5 -8z m610 -10 c0 -5 -4 -10 -10 -10 -5 0 -10 5 -10 10 0 6 5 10 10
10 6 0 10 -4 10 -10z m-780 -10 c-25 -4 -79 -10 -120 -13 l-75 -5 80 13 c44 7
98 13 120 13 l40 0 -45 -8z m-1083 -6 c-3 -3 -12 -4 -19 -1 -8 3 -5 6 6 6 11
1 17 -2 13 -5z m843 -25 c-25 -4 -58 -7 -75 -7 -25 1 -24 2 10 8 22 4 56 7 75
7 31 0 30 0 -10 -8z m-122 -16 c-10 -2 -26 -2 -35 0 -10 3 -2 5 17 5 19 0 27
-2 18 -5z"/><path d="M9178 973 c7 -3 16 -2 19 1 4 3 -2 6 -13 5 -11 0 -14 -3 -6 -6z"/><path d="M8851 929 c18 -11 79 -12 79 -1 0 5 -21 9 -47 10 -31 0 -42 -3 -32
-9z"/><path d="M8966 932 c-2 -4 13 -8 35 -9 21 -2 39 1 39 5 0 10 -68 13 -74 4z"/><path d="M8790 900 c0 -13 60 -13 80 0 11 7 2 10 -32 10 -27 0 -48 -4 -48 -10z"/><path d="M8910 890 c0 -5 7 -10 15 -10 8 0 15 5 15 10 0 6 -7 10 -15 10 -8 0
-15 -4 -15 -10z"/><path d="M9058 873 c12 -2 30 -2 40 0 9 3 -1 5 -23 4 -22 0 -30 -2 -17 -4z"/><path d="M8956 846 c3 -7 20 -10 45 -8 49 5 47 9 -8 15 -29 4 -40 2 -37 -7z"/><path d="M6150 830 c8 -5 20 -10 25 -10 6 0 3 5 -5 10 -8 5 -19 10 -25 10 -5
0 -3 -5 5 -10z"/><path d="M6248 813 c7 -3 16 -2 19 1 4 3 -2 6 -13 5 -11 0 -14 -3 -6 -6z"/><path d="M6358 803 c7 -3 16 -2 19 1 4 3 -2 6 -13 5 -11 0 -14 -3 -6 -6z"/></g></svg>