<svg id="Layer_1" data-name="Layer 1" xmlns="http://www.w3.org/2000/svg" width="256" height="256" viewBox="0 0 256 256">
  <defs>
    <style>
      .cls-1 {
        fill: #9ba1a5;
      }

      .cls-2 {
        fill: #2667b5;
      }
    </style>
  </defs>
  <title>pd-icon-r</title>
  <g>
    <path class="cls-1" d="M128,191.94c-62.14,0-112.51-33.73-112.51-75.35S65.86,41.24,128,41.24,240.51,75,240.51,116.59,190.14,191.94,128,191.94ZM145.22,70.7c-47.23,0-85.5,23.06-85.5,51.51s38.29,51.52,85.5,51.52,82.07-15.77,82.07-51.52S192.45,70.7,145.22,70.7Z"/>
    <path class="cls-2" d="M186.84,158A84.27,84.27,0,0,1,197.6,162a20.84,20.84,0,0,1,5.46,3.91,14.58,14.58,0,0,1,2.5,3.58l26.84,45.25-43.38,0-20.28-38.09s-4.16-7.13-6.71-9.2c-2.13-1.73-3-2.34-5.15-2.34h-10.3v49.61H108.2V88h77.08s35.1.64,35.1,34S186.84,158,186.84,158Zm-16.7-42.44H146.89V137h23.25s10.77,0,10.77-11C180.91,114.93,170.14,115.51,170.14,115.51Z"/>
  </g>
</svg>
